Anaheim.ufo
<glyph name="exclam" format="1">
  <advance width="446"/>
  <unicode hex="0021"/>
  <outline>
    <contour>
      <point x="151" y="1284" type="line"/>
      <point x="288" y="1284" type="line"/>
      <point x="250" y="341" type="line"/>
      <point x="191" y="341" type="line"/>
    </contour>
    <contour>
      <point x="157" y="154" type="line"/>
      <point x="295" y="154" type="line"/>
      <point x="295" y="0" type="line"/>
      <point x="157" y="0" type="line"/>
    </contour>
  </outline>
</glyph>
<glyph name="quotesingle" format="1">
  <advance width="371"/>
  <unicode hex="0027"/>
  <outline>
    <contour>
      <point x="125" y="1411" type="line"/>
      <point x="248" y="1411" type="line"/>
      <point x="239" y="1212" type="line"/>
      <point x="239" y="950" type="line"/>
      <point x="125" y="950" type="line"/>
    </contour>
  </outline>
</glyph>
<glyph name="plus" format="1">
  <advance width="996"/>
  <unicode hex="002B"/>
  <outline>
    <contour>
      <point x="550" y="1010" type="line"/>
      <point x="550" y="645" type="line"/>
      <point x="884" y="645" type="line"/>
      <point x="884" y="541" type="line"/>
      <point x="550" y="541" type="line"/>
      <point x="550" y="176" type="line"/>
      <point x="445" y="176" type="line"/>
      <point x="445" y="541" type="line"/>
      <point x="110" y="541" type="line"/>
      <point x="110" y="645" type="line"/>
      <point x="445" y="645" type="line"/>
      <point x="445" y="1010" type="line"/>
    </contour>
  </outline>
</glyph>
<glyph name="hyphen" format="1">
  <advance width="750"/>
  <unicode hex="002D"/>
  <outline>
    <contour>
      <point x="114" y="449" type="line"/>
      <point x="114" y="565" type="line"/>
      <point x="633" y="565" type="line"/>
      <point x="633" y="449" type="line"/>
    </contour>
  </outline>
</glyph>
<glyph name="period" format="1">
  <advance width="452"/>
  <unicode hex="002E"/>
  <outline>
    <contour>
      <point x="305" y="202" type="line"/>
      <point x="305" y="0" type="line"/>
      <point x="145" y="0" type="line"/>
      <point x="145" y="202" type="line"/>
    </contour>
  </outline>
</glyph>
<glyph name="slash" format="1">
  <advance width="888"/>
  <unicode hex="002F"/>
  <outline>
    <contour>
      <point x="812" y="1458" type="line"/>
      <point x="178" y="-121" type="line"/>
      <point x="99" y="-84" type="line"/>
      <point x="731" y="1497" type="line"/>
    </contour>
  </outline>
</glyph>
<glyph name="seven" format="1">
  <advance width="875"/>
  <unicode hex="0037"/>
  <outline>
    <contour>
      <point x="779" y="1198" type="line"/>
      <point x="704" y="1081"/>
      <point x="379" y="417"/>
      <point x="379" y="0" type="curve"/>
      <point x="243" y="0" type="line"/>
      <point x="253" y="373"/>
      <point x="421" y="763"/>
      <point x="638" y="1195" type="curve"/>
      <point x="106" y="1195" type="line"/>
      <point x="106" y="1301" type="line"/>
      <point x="769" y="1301" type="line"/>
    </contour>
  </outline>
</glyph>
<glyph name="equal" format="1">
  <advance width="1025"/>
  <unicode hex="003D"/>
  <outline>
    <contour>
      <point x="123" y="780" type="line"/>
      <point x="897" y="780" type="line"/>
      <point x="897" y="684" type="line"/>
      <point x="123" y="684" type="line"/>
    </contour>
    <contour>
      <point x="123" y="467" type="line"/>
      <point x="897" y="467" type="line"/>
      <point x="897" y="371" type="line"/>
      <point x="123" y="371" type="line"/>
    </contour>
  </outline>
</glyph>
<glyph name="greater" format="1">
  <advance width="1009"/>
  <unicode hex="003E"/>
  <outline>
    <contour>
      <point x="774" y="596" type="line"/>
      <point x="130" y="1030" type="line"/>
      <point x="186" y="1116" type="line"/>
      <point x="899" y="629" type="line"/>
      <point x="899" y="563" type="line"/>
      <point x="186" y="61" type="line"/>
      <point x="130" y="150" type="line"/>
    </contour>
  </outline>
</glyph>
<glyph name="F" format="1">
  <advance width="852"/>
  <unicode hex="0046"/>
  <outline>
    <contour>
      <point x="277" y="697" type="line"/>
      <point x="733" y="697" type="line"/>
      <point x="733" y="603" type="line"/>
      <point x="277" y="603" type="line"/>
      <point x="277" y="0" type="line"/>
      <point x="149" y="0" type="line"/>
      <point x="149" y="1284" type="line"/>
      <point x="816" y="1284" type="line"/>
      <point x="797" y="1184" type="line"/>
      <point x="277" y="1184" type="line"/>
    </contour>
  </outline>
</glyph>
<glyph name="I" format="1">
  <advance width="730"/>
  <unicode hex="0049"/>
  <outline>
    <contour>
      <point x="432" y="1184" type="line"/>
      <point x="432" y="100" type="line"/>
      <point x="620" y="100" type="line"/>
      <point x="620" y="0" type="line"/>
      <point x="110" y="0" type="line"/>
      <point x="110" y="100" type="line"/>
      <point x="304" y="100" type="line"/>
      <point x="304" y="1184" type="line"/>
      <point x="110" y="1184" type="line"/>
      <point x="110" y="1284" type="line"/>
      <point x="616" y="1284" type="line"/>
      <point x="616" y="1184" type="line"/>
    </contour>
    <contour>
      <point x="374" y="0" type="move" name="ogonek"/>
    </contour>
    <contour>
      <point x="365" y="0" type="move" name="bottom"/>
    </contour>
    <contour>
      <point x="368" y="1284" type="move" name="top_case"/>
    </contour>
  </outline>
</glyph>
<glyph name="L" format="1">
  <advance width="825"/>
  <unicode hex="004C"/>
  <outline>
    <contour>
      <point x="277" y="1284" type="line"/>
      <point x="277" y="100" type="line"/>
      <point x="769" y="100" type="line"/>
      <point x="786" y="0" type="line"/>
      <point x="149" y="0" type="line"/>
      <point x="149" y="1284" type="line"/>
    </contour>
    <contour>
      <point x="468" y="0" type="move" name="bottom"/>
    </contour>
    <contour>
      <point x="413" y="1284" type="move" name="top_case"/>
    </contour>
    <contour>
      <point x="597" y="1284" type="move" name="topright"/>
    </contour>
    <contour>
      <point x="626" y="675" type="move" name="center"/>
    </contour>
  </outline>
</glyph>
<glyph name="W" format="1">
  <advance width="1337"/>
  <unicode hex="0057"/>
  <outline>
    <contour>
      <point x="390" y="185" type="line"/>
      <point x="623" y="846" type="line"/>
      <point x="738" y="846" type="line"/>
      <point x="981" y="183" type="line"/>
      <point x="1087" y="1284" type="line"/>
      <point x="1205" y="1284" type="line"/>
      <point x="1085" y="0" type="line"/>
      <point x="943" y="0" type="line"/>
      <point x="681" y="702" type="line"/>
      <point x="427" y="0" type="line"/>
      <point x="286" y="0" type="line"/>
      <point x="157" y="1284" type="line"/>
      <point x="275" y="1284" type="line"/>
    </contour>
  </outline>
</glyph>
<glyph name="backslash" format="1">
  <advance width="884"/>
  <unicode hex="005C"/>
  <outline>
    <contour>
      <point x="159" y="1473" type="line"/>
      <point x="784" y="-55" type="line"/>
      <point x="709" y="-96" type="line"/>
      <point x="83" y="1432" type="line"/>
    </contour>
  </outline>
</glyph>
<glyph name="asciicircum" format="1">
  <advance width="943"/>
  <unicode hex="005E"/>
  <outline>
    <contour>
      <point x="448" y="1211" type="line"/>
      <point x="247" y="775" type="line"/>
      <point x="128" y="775" type="line"/>
      <point x="380" y="1308" type="line"/>
      <point x="517" y="1308" type="line"/>
      <point x="768" y="776" type="line"/>
      <point x="654" y="776" type="line"/>
    </contour>
  </outline>
</glyph>
<glyph name="underscore" format="1">
  <advance width="1066"/>
  <unicode hex="005F"/>
  <outline>
    <contour>
      <point x="100" y="-219" type="line"/>
      <point x="100" y="-125" type="line"/>
      <point x="968" y="-125" type="line"/>
      <point x="968" y="-219" type="line"/>
    </contour>
  </outline>
</glyph>
<glyph name="l" format="1">
  <advance width="682"/>
  <unicode hex="006C"/>
  <outline>
    <contour>
      <point x="72" y="1358" type="line"/>
      <point x="421" y="1358" type="line"/>
      <point x="421" y="90" type="line"/>
      <point x="632" y="90" type="line"/>
      <point x="632" y="0" type="line"/>
      <point x="70" y="0" type="line"/>
      <point x="70" y="90" type="line"/>
      <point x="293" y="90" type="line"/>
      <point x="293" y="1267" type="line"/>
      <point x="72" y="1267" type="line"/>
    </contour>
    <contour>
      <point x="357" y="0" type="move" name="bottom"/>
    </contour>
    <contour>
      <point x="357" y="1358" type="move" name="top_case"/>
    </contour>
    <contour>
      <point x="520" y="1358" type="move" name="topright"/>
    </contour>
    <contour>
      <point x="698" y="714" type="move" name="center"/>
    </contour>
  </outline>
</glyph>
<glyph name="v" format="1">
  <advance width="912"/>
  <unicode hex="0076"/>
  <outline>
    <contour>
      <point x="463" y="137" type="line"/>
      <point x="716" y="985" type="line"/>
      <point x="847" y="985" type="line"/>
      <point x="531" y="0" type="line"/>
      <point x="394" y="0" type="line"/>
      <point x="65" y="985" type="line"/>
      <point x="195" y="985" type="line"/>
    </contour>
  </outline>
</glyph>
<glyph name="brokenbar" format="1">
  <advance width="423"/>
  <unicode hex="00A6"/>
  <outline>
    <contour>
      <point x="162" y="776" type="line"/>
      <point x="162" y="1331" type="line"/>
      <point x="269" y="1331" type="line"/>
      <point x="269" y="776" type="line"/>
    </contour>
    <contour>
      <point x="162" y="-65" type="line"/>
      <point x="162" y="527" type="line"/>
      <point x="269" y="527" type="line"/>
      <point x="269" y="-65" type="line"/>
    </contour>
  </outline>
</glyph>
<glyph name="guillemetleft" format="1">
  <advance width="967"/>
  <unicode hex="00AB"/>
  <outline>
    <contour>
      <point x="493" y="817" type="line"/>
      <point x="219" y="545" type="line"/>
      <point x="493" y="279" type="line"/>
      <point x="463" y="160" type="line"/>
      <point x="106" y="520" type="line"/>
      <point x="128" y="600" type="line"/>
      <point x="463" y="936" type="line"/>
    </contour>
    <contour>
      <point x="834" y="817" type="line"/>
      <point x="561" y="545" type="line"/>
      <point x="834" y="279" type="line"/>
      <point x="806" y="160" type="line"/>
      <point x="447" y="520" type="line"/>
      <point x="469" y="600" type="line"/>
      <point x="806" y="936" type="line"/>
    </contour>
  </outline>
</glyph>
<glyph name="softhyphen" format="1">
  <advance width="1040"/>
  <unicode hex="00AD"/>
  <outline>
    <contour>
      <point x="153" y="725" type="line"/>
      <point x="153" y="831" type="line"/>
      <point x="886" y="831" type="line"/>
      <point x="886" y="725" type="line"/>
    </contour>
  </outline>
</glyph>
<glyph name="macron" format="1">
  <advance width="608"/>
  <unicode hex="00AF"/>
  <outline>
    <contour>
      <point x="64" y="1078" type="line"/>
      <point x="64" y="1184" type="line"/>
      <point x="544" y="1184" type="line"/>
      <point x="544" y="1078" type="line"/>
    </contour>
  </outline>
</glyph>
<glyph name="twosuperior" format="1">
  <advance width="775"/>
  <unicode hex="00B2"/>
  <outline>
    <contour>
      <point x="567" y="1421"/>
      <point x="658" y="1306"/>
      <point x="658" y="1170" type="curve" smooth="yes"/>
      <point x="658" y="922"/>
      <point x="308" y="807"/>
      <point x="253" y="593" type="curve"/>
      <point x="637" y="593" type="line"/>
      <point x="637" y="488" type="line"/>
      <point x="122" y="488" type="line"/>
      <point x="124" y="692"/>
      <point x="252" y="804"/>
      <point x="373" y="915" type="curve" smooth="yes"/>
      <point x="461" y="996"/>
      <point x="535" y="1068"/>
      <point x="535" y="1163" type="curve" smooth="yes"/>
      <point x="535" y="1264"/>
      <point x="492" y="1324"/>
      <point x="366" y="1324" type="curve" smooth="yes"/>
      <point x="254" y="1324"/>
      <point x="169" y="1265"/>
      <point x="143" y="1246" type="curve"/>
      <point x="102" y="1346" type="line"/>
      <point x="182" y="1389"/>
      <point x="250" y="1421"/>
      <point x="372" y="1421" type="curve" smooth="yes"/>
    </contour>
  </outline>
</glyph>
<glyph name="threesuperior" format="1">
  <advance width="736"/>
  <unicode hex="00B3"/>
  <outline>
    <contour>
      <point x="82" y="1378" type="line"/>
      <point x="167" y="1404"/>
      <point x="254" y="1421"/>
      <point x="330" y="1421" type="curve" smooth="yes"/>
      <point x="500" y="1421"/>
      <point x="616" y="1344"/>
      <point x="616" y="1195" type="curve" smooth="yes"/>
      <point x="616" y="1083"/>
      <point x="558" y="1024"/>
      <point x="466" y="988" type="curve"/>
      <point x="573" y="958"/>
      <point x="655" y="862"/>
      <point x="655" y="747" type="curve" smooth="yes"/>
      <point x="655" y="550"/>
      <point x="492" y="486"/>
      <point x="325" y="486" type="curve" smooth="yes"/>
      <point x="240" y="486"/>
      <point x="159" y="498"/>
      <point x="82" y="525" type="curve"/>
      <point x="108" y="621" type="line"/>
      <point x="174" y="597"/>
      <point x="262" y="583"/>
      <point x="328" y="583" type="curve" smooth="yes"/>
      <point x="449" y="583"/>
      <point x="545" y="618"/>
      <point x="545" y="755" type="curve" smooth="yes"/>
      <point x="545" y="874"/>
      <point x="444" y="929"/>
      <point x="339" y="929" type="curve" smooth="yes"/>
      <point x="295" y="929"/>
      <point x="237" y="921"/>
      <point x="199" y="913" type="curve"/>
      <point x="189" y="1009" type="line"/>
      <point x="382" y="1032"/>
      <point x="507" y="1065"/>
      <point x="507" y="1186" type="curve" smooth="yes"/>
      <point x="507" y="1276"/>
      <point x="446" y="1324"/>
      <point x="334" y="1324" type="curve" smooth="yes"/>
      <point x="260" y="1324"/>
      <point x="181" y="1308"/>
      <point x="108" y="1284" type="curve"/>
    </contour>
  </outline>
</glyph>
<glyph name="periodcentered" format="1">
  <advance width="452"/>
  <unicode hex="00B7"/>
  <outline>
    <contour>
      <point x="375" y="746" type="line"/>
      <point x="375" y="554" type="line"/>
      <point x="215" y="554" type="line"/>
      <point x="215" y="746" type="line"/>
    </contour>
  </outline>
</glyph>
<glyph name="onesuperior" format="1">
  <advance width="653"/>
  <unicode hex="00B9"/>
  <outline>
    <contour>
      <point x="410" y="593" type="line"/>
      <point x="556" y="593" type="line"/>
      <point x="556" y="488" type="line"/>
      <point x="129" y="488" type="line"/>
      <point x="129" y="593" type="line"/>
      <point x="298" y="593" type="line"/>
      <point x="298" y="1293" type="line"/>
      <point x="133" y="1222" type="line"/>
      <point x="89" y="1307" type="line"/>
      <point x="316" y="1404" type="line"/>
      <point x="410" y="1404" type="line"/>
    </contour>
  </outline>
</glyph>
<glyph name="onequarter" format="1">
  <advance width="1863"/>
  <unicode hex="00BC"/>
  <outline>
    <contour>
      <point x="1498" y="0" type="line"/>
      <point x="1498" y="260" type="line"/>
      <point x="1005" y="260" type="line"/>
      <point x="1005" y="343" type="line"/>
      <point x="1363" y="1130" type="line"/>
      <point x="1477" y="1130" type="line"/>
      <point x="1128" y="347" type="line"/>
      <point x="1498" y="347" type="line"/>
      <point x="1498" y="662" type="line"/>
      <point x="1609" y="662" type="line"/>
      <point x="1609" y="347" type="line"/>
      <point x="1769" y="347" type="line"/>
      <point x="1769" y="260" type="line"/>
      <point x="1609" y="260" type="line"/>
      <point x="1609" y="0" type="line"/>
    </contour>
    <component base="fraction" xOffset="404" yOffset="-114"/>
    <component base="onesuperior" xOffset="-2"/>
  </outline>
</glyph>
<glyph name="threequarters" format="1">
  <advance width="2036"/>
  <unicode hex="00BE"/>
  <outline>
    <contour>
      <point x="1639" y="0" type="line"/>
      <point x="1639" y="260" type="line"/>
      <point x="1146" y="260" type="line"/>
      <point x="1146" y="343" type="line"/>
      <point x="1504" y="1130" type="line"/>
      <point x="1618" y="1130" type="line"/>
      <point x="1269" y="347" type="line"/>
      <point x="1639" y="347" type="line"/>
      <point x="1639" y="662" type="line"/>
      <point x="1750" y="662" type="line"/>
      <point x="1750" y="347" type="line"/>
      <point x="1910" y="347" type="line"/>
      <point x="1910" y="260" type="line"/>
      <point x="1750" y="260" type="line"/>
      <point x="1750" y="0" type="line"/>
    </contour>
    <component base="fraction" xOffset="545" yOffset="-114"/>
    <component base="threesuperior" xOffset="50"/>
  </outline>
</glyph>
<glyph name="germandbls" format="1">
  <advance width="997"/>
  <unicode hex="00DF"/>
  <outline>
    <contour>
      <point x="802" y="279" type="curve" smooth="yes"/>
      <point x="802" y="514"/>
      <point x="411" y="464"/>
      <point x="411" y="664" type="curve" smooth="yes"/>
      <point x="411" y="784"/>
      <point x="544" y="850"/>
      <point x="693" y="922" type="curve"/>
      <point x="693" y="1122"/>
      <point x="649" y="1195"/>
      <point x="477" y="1195" type="curve" smooth="yes"/>
      <point x="322" y="1195"/>
      <point x="261" y="1100"/>
      <point x="261" y="901" type="curve" smooth="yes"/>
      <point x="261" y="0" type="line"/>
      <point x="133" y="0" type="line"/>
      <point x="133" y="912" type="line" smooth="yes"/>
      <point x="133" y="1172"/>
      <point x="245" y="1301"/>
      <point x="481" y="1301" type="curve" smooth="yes"/>
      <point x="762" y="1301"/>
      <point x="830" y="1151"/>
      <point x="830" y="855" type="curve"/>
      <point x="644" y="795"/>
      <point x="537" y="733"/>
      <point x="537" y="674" type="curve" smooth="yes"/>
      <point x="537" y="557"/>
      <point x="933" y="558"/>
      <point x="933" y="270" type="curve" smooth="yes"/>
      <point x="933" y="77"/>
      <point x="788" y="-10"/>
      <point x="622" y="-10" type="curve" smooth="yes"/>
      <point x="541" y="-10"/>
      <point x="455" y="16"/>
      <point x="380" y="66" type="curve"/>
      <point x="418" y="156" type="line"/>
      <point x="480" y="117"/>
      <point x="549" y="95"/>
      <point x="611" y="95" type="curve" smooth="yes"/>
      <point x="716" y="95"/>
      <point x="802" y="150"/>
    </contour>
  </outline>
</glyph>
<glyph name="ae" format="1">
  <advance width="1541"/>
  <unicode hex="00E6"/>
  <outline>
    <contour>
      <point x="1320" y="561" type="line"/>
      <point x="1320" y="609" type="line" smooth="yes"/>
      <point x="1320" y="783"/>
      <point x="1230" y="895"/>
      <point x="1085" y="895" type="curve" smooth="yes"/>
      <point x="902" y="895"/>
      <point x="812" y="750"/>
      <point x="812" y="519" type="curve" smooth="yes"/>
      <point x="812" y="172"/>
      <point x="947" y="96"/>
      <point x="1102" y="96" type="curve" smooth="yes"/>
      <point x="1202" y="96"/>
      <point x="1289" y="117"/>
      <point x="1382" y="176" type="curve"/>
      <point x="1421" y="75" type="line"/>
      <point x="1325" y="16"/>
      <point x="1204" y="-10"/>
      <point x="1109" y="-10" type="curve" smooth="yes"/>
      <point x="852" y="-10"/>
      <point x="685" y="134"/>
      <point x="685" y="496" type="curve" smooth="yes"/>
      <point x="685" y="599" type="line" smooth="yes"/>
      <point x="685" y="831"/>
      <point x="594" y="895"/>
      <point x="468" y="895" type="curve" smooth="yes"/>
      <point x="386" y="895"/>
      <point x="289" y="868"/>
      <point x="191" y="843" type="curve"/>
      <point x="166" y="942" type="line"/>
      <point x="270" y="976"/>
      <point x="377" y="1000"/>
      <point x="474" y="1000" type="curve" smooth="yes"/>
      <point x="624" y="1000"/>
      <point x="747" y="939"/>
      <point x="792" y="771" type="curve"/>
      <point x="722" y="743" type="line"/>
      <point x="783" y="919"/>
      <point x="916" y="1000"/>
      <point x="1084" y="1000" type="curve" smooth="yes"/>
      <point x="1306" y="1000"/>
      <point x="1439" y="841"/>
      <point x="1439" y="604" type="curve" smooth="yes"/>
      <point x="1439" y="574"/>
      <point x="1436" y="528"/>
      <point x="1431" y="469" type="curve"/>
      <point x="629" y="469" type="line" smooth="yes"/>
      <point x="462" y="469"/>
      <point x="229" y="451"/>
      <point x="229" y="278" type="curve" smooth="yes"/>
      <point x="229" y="153"/>
      <point x="305" y="92"/>
      <point x="445" y="92" type="curve" smooth="yes"/>
      <point x="571" y="92"/>
      <point x="693" y="159"/>
      <point x="751" y="234" type="curve"/>
      <point x="808" y="168" type="line"/>
      <point x="732" y="76"/>
      <point x="603" y="-10"/>
      <point x="425" y="-10" type="curve" smooth="yes"/>
      <point x="241" y="-10"/>
      <point x="109" y="83"/>
      <point x="109" y="269" type="curve" smooth="yes"/>
      <point x="109" y="419"/>
      <point x="223" y="562"/>
      <point x="597" y="562" type="curve" smooth="yes"/>
    </contour>
    <contour>
      <point x="760" y="0" type="move" name="ogonek"/>
    </contour>
    <contour>
      <point x="771" y="0" type="move" name="bottom"/>
    </contour>
    <contour>
      <point x="771" y="985" type="move" name="top"/>
    </contour>
  </outline>
</glyph>
<glyph name="oslash" format="1">
  <advance width="1016"/>
  <unicode hex="00F8"/>
  <outline>
    <contour>
      <point x="285" y="-119" type="line"/>
      <point x="213" y="-91" type="line"/>
      <point x="715" y="1104" type="line"/>
      <point x="786" y="1076" type="line"/>
    </contour>
    <component base="o"/>
  </outline>
</glyph>
<glyph name="idotless" format="1">
  <advance width="673"/>
  <unicode hex="0131"/>
  <outline>
    <contour>
      <point x="111" y="895" type="line"/>
      <point x="111" y="985" type="line"/>
      <point x="431" y="985" type="line"/>
      <point x="431" y="90" type="line"/>
      <point x="623" y="90" type="line"/>
      <point x="623" y="0" type="line"/>
      <point x="111" y="0" type="line"/>
      <point x="111" y="90" type="line"/>
      <point x="303" y="90" type="line"/>
      <point x="303" y="895" type="line"/>
    </contour>
  </outline>
</glyph>
<glyph name="Schwa" format="1">
  <advance width="1132"/>
  <unicode hex="018F"/>
  <outline>
    <contour>
      <point x="240" y="583" type="line"/>
      <point x="240" y="234"/>
      <point x="320" y="96"/>
      <point x="565" y="96" type="curve" smooth="yes"/>
      <point x="793" y="96"/>
      <point x="888" y="271"/>
      <point x="888" y="630" type="curve" smooth="yes"/>
      <point x="888" y="1011"/>
      <point x="766" y="1198"/>
      <point x="518" y="1198" type="curve" smooth="yes"/>
      <point x="400" y="1198"/>
      <point x="297" y="1172"/>
      <point x="186" y="1096" type="curve"/>
      <point x="136" y="1197" type="line"/>
      <point x="251" y="1274"/>
      <point x="395" y="1308"/>
      <point x="509" y="1308" type="curve" smooth="yes"/>
      <point x="849" y="1308"/>
      <point x="1016" y="1086"/>
      <point x="1016" y="632" type="curve" smooth="yes"/>
      <point x="1016" y="201"/>
      <point x="868" y="-10"/>
      <point x="565" y="-10" type="curve" smooth="yes"/>
      <point x="269" y="-10"/>
      <point x="116" y="165"/>
      <point x="116" y="507" type="curve" smooth="yes"/>
      <point x="116" y="557"/>
      <point x="120" y="629"/>
      <point x="126" y="684" type="curve"/>
      <point x="931" y="684" type="line"/>
      <point x="931" y="583" type="line"/>
    </contour>
  </outline>
</glyph>
<glyph name="schwa" format="1">
  <advance width="964"/>
  <unicode hex="0259"/>
  <outline>
    <contour>
      <point x="439" y="894" type="curve" smooth="yes"/>
      <point x="339" y="894"/>
      <point x="252" y="873"/>
      <point x="159" y="814" type="curve"/>
      <point x="120" y="915" type="line"/>
      <point x="216" y="974"/>
      <point x="337" y="1000"/>
      <point x="432" y="1000" type="curve" smooth="yes"/>
      <point x="689" y="1000"/>
      <point x="856" y="856"/>
      <point x="856" y="494" type="curve" smooth="yes"/>
      <point x="856" y="147"/>
      <point x="690" y="-10"/>
      <point x="457" y="-10" type="curve" smooth="yes"/>
      <point x="235" y="-10"/>
      <point x="102" y="149"/>
      <point x="102" y="386" type="curve" smooth="yes"/>
      <point x="102" y="416"/>
      <point x="105" y="462"/>
      <point x="110" y="521" type="curve"/>
      <point x="728" y="521" type="line"/>
      <point x="724" y="828"/>
      <point x="585" y="894"/>
    </contour>
    <contour>
      <point x="456" y="95" type="curve" smooth="yes"/>
      <point x="629" y="95"/>
      <point x="713" y="224"/>
      <point x="728" y="431" type="curve"/>
      <point x="221" y="431" type="line"/>
      <point x="221" y="381" type="line" smooth="yes"/>
      <point x="221" y="207"/>
      <point x="311" y="95"/>
    </contour>
  </outline>
</glyph>
<glyph name="breve" format="1">
  <advance width="825"/>
  <unicode hex="02D8"/>
  <outline>
    <contour>
      <point x="543" y="1031"/>
      <point x="618" y="1075"/>
      <point x="703" y="1180" type="curve"/>
      <point x="626" y="1250" type="line"/>
      <point x="567" y="1181"/>
      <point x="514" y="1141"/>
      <point x="431" y="1141" type="curve" smooth="yes"/>
      <point x="348" y="1141"/>
      <point x="295" y="1181"/>
      <point x="236" y="1250" type="curve"/>
      <point x="159" y="1180" type="line"/>
      <point x="244" y="1075"/>
      <point x="319" y="1031"/>
      <point x="431" y="1031" type="curve" smooth="yes"/>
    </contour>
  </outline>
</glyph>
<glyph name="ring" format="1">
  <advance width="699"/>
  <unicode hex="02DA"/>
  <outline>
    <contour>
      <point x="350" y="905" type="curve" smooth="yes"/>
      <point x="210" y="905"/>
      <point x="116" y="995"/>
      <point x="116" y="1127" type="curve" smooth="yes"/>
      <point x="116" y="1265"/>
      <point x="214" y="1350"/>
      <point x="350" y="1350" type="curve" smooth="yes"/>
      <point x="486" y="1350"/>
      <point x="582" y="1260"/>
      <point x="582" y="1127" type="curve" smooth="yes"/>
      <point x="582" y="992"/>
      <point x="484" y="905"/>
    </contour>
    <contour>
      <point x="486" y="1127" type="curve" smooth="yes"/>
      <point x="486" y="1212"/>
      <point x="437" y="1266"/>
      <point x="350" y="1266" type="curve" smooth="yes"/>
      <point x="266" y="1266"/>
      <point x="213" y="1211"/>
      <point x="213" y="1127" type="curve" smooth="yes"/>
      <point x="213" y="1042"/>
      <point x="265" y="989"/>
      <point x="350" y="989" type="curve" smooth="yes"/>
      <point x="435" y="989"/>
      <point x="486" y="1046"/>
    </contour>
  </outline>
</glyph>
<glyph name="ogonek" format="1">
  <advance width="936"/>
  <unicode hex="02DB"/>
  <outline>
    <contour>
      <point x="527" y="-117" type="curve"/>
      <point x="612" y="-117" type="line"/>
      <point x="558" y="-150"/>
      <point x="463" y="-219"/>
      <point x="463" y="-296" type="curve" smooth="yes"/>
      <point x="463" y="-346"/>
      <point x="496" y="-371"/>
      <point x="543" y="-371" type="curve" smooth="yes"/>
      <point x="578" y="-371"/>
      <point x="615" y="-361"/>
      <point x="633" y="-351" type="curve"/>
      <point x="648" y="-431" type="line"/>
      <point x="608" y="-448"/>
      <point x="563" y="-457"/>
      <point x="522" y="-457" type="curve" smooth="yes"/>
      <point x="435" y="-457"/>
      <point x="361" y="-415"/>
      <point x="361" y="-320" type="curve" smooth="yes"/>
      <point x="361" y="-250"/>
      <point x="424" y="-174"/>
    </contour>
  </outline>
</glyph>
<glyph name="gravecomb" format="1">
  <advance width="0"/>
  <unicode hex="0300"/>
  <outline>
    <component base="grave" xOffset="-243" yOffset="125"/>
    <contour>
      <point x="-1" y="1363" type="move" name="top_case"/>
    </contour>
    <contour>
      <point x="-1" y="985" type="move" name="_top"/>
    </contour>
  </outline>
</glyph>
<glyph name="acutecomb" format="1">
  <advance width="0"/>
  <unicode hex="0301"/>
  <outline>
    <component base="acute" xOffset="-258" yOffset="125"/>
    <contour>
      <point x="0" y="1484" type="move" name="top_case"/>
    </contour>
    <contour>
      <point x="0" y="985" type="move" name="_top"/>
    </contour>
  </outline>
</glyph>
<glyph name="circumflexcomb" format="1">
  <advance width="0"/>
  <unicode hex="0302"/>
  <outline>
    <component base="circumflex" xOffset="-434" yOffset="100"/>
    <contour>
      <point x="1" y="1461" type="move" name="top_case"/>
    </contour>
    <contour>
      <point x="1" y="985" type="move" name="_top"/>
    </contour>
  </outline>
</glyph>
<glyph name="tildecomb" format="1">
  <advance width="0"/>
  <unicode hex="0303"/>
  <outline>
    <component base="tilde" xOffset="-440" yOffset="690"/>
    <contour>
      <point x="0" y="1409" type="move" name="top_case"/>
    </contour>
    <contour>
      <point x="0" y="985" type="move" name="_top"/>
    </contour>
  </outline>
</glyph>
<glyph name="macroncomb" format="1">
  <advance width="0"/>
  <unicode hex="0304"/>
  <outline>
    <component base="macron" xOffset="-304" yOffset="63"/>
    <contour>
      <point x="0" y="1284" type="move" name="top_case"/>
    </contour>
    <contour>
      <point x="0" y="985" type="move" name="_top"/>
    </contour>
  </outline>
</glyph>
<glyph name="brevecomb" format="1">
  <advance width="0"/>
  <unicode hex="0306"/>
  <outline>
    <component base="breve" xOffset="-431" yOffset="100"/>
    <contour>
      <point x="0" y="1284" type="move" name="top_case"/>
    </contour>
    <contour>
      <point x="0" y="985" type="move" name="_top"/>
    </contour>
  </outline>
</glyph>
<glyph name="dotaccentcomb" format="1">
  <advance width="0"/>
  <unicode hex="0307"/>
  <outline>
    <component base="dotaccent" xOffset="12" yOffset="990"/>
    <contour>
      <point x="0" y="1305" type="move" name="top_case"/>
    </contour>
    <contour>
      <point x="0" y="985" type="move" name="_top"/>
    </contour>
  </outline>
</glyph>
<glyph name="ringcomb" format="1">
  <advance width="0"/>
  <unicode hex="030A"/>
  <outline>
    <component base="ring" xOffset="-349" yOffset="164"/>
    <contour>
      <point x="0" y="1435" type="move" name="top_case"/>
    </contour>
    <contour>
      <point x="0" y="985" type="move" name="_top"/>
    </contour>
  </outline>
</glyph>
<glyph name="hungarumlautcomb" format="1">
  <advance width="0"/>
  <unicode hex="030B"/>
  <outline>
    <component base="hungarumlaut" xOffset="-312" yOffset="110"/>
    <contour>
      <point x="-1" y="1363" type="move" name="top_case"/>
    </contour>
    <contour>
      <point x="-1" y="985" type="move" name="_top"/>
    </contour>
  </outline>
</glyph>
<glyph name="caroncomb" format="1">
  <advance width="0"/>
  <unicode hex="030C"/>
  <outline>
    <component base="caron" xOffset="-164" yOffset="110"/>
    <contour>
      <point x="1" y="1363" type="move" name="top_case"/>
    </contour>
    <contour>
      <point x="1" y="985" type="move" name="_top"/>
    </contour>
  </outline>
</glyph>
<glyph name="dblgravecomb" format="1">
  <advance width="0"/>
  <unicode hex="030F"/>
  <outline>
    <contour>
      <point x="-55" y="1142" type="line"/>
      <point x="-108" y="1093" type="line"/>
      <point x="-173" y="1150"/>
      <point x="-272" y="1242"/>
      <point x="-307" y="1284" type="curve" smooth="yes"/>
      <point x="-406" y="1403" type="line"/>
      <point x="-300" y="1483" type="line"/>
    </contour>
    <contour>
      <point x="247" y="1142" type="line"/>
      <point x="194" y="1093" type="line"/>
      <point x="129" y="1150"/>
      <point x="30" y="1242"/>
      <point x="-5" y="1284" type="curve" smooth="yes"/>
      <point x="-104" y="1403" type="line"/>
      <point x="2" y="1483" type="line"/>
    </contour>
    <contour>
      <point x="0" y="1363" type="move" name="top_case"/>
    </contour>
    <contour>
      <point x="0" y="985" type="move" name="_top"/>
    </contour>
  </outline>
</glyph>
<glyph name="breveinvertedcomb" format="1">
  <advance width="0"/>
  <unicode hex="0311"/>
  <outline>
    <contour>
      <point x="-112" y="1372"/>
      <point x="-187" y="1328"/>
      <point x="-272" y="1223" type="curve"/>
      <point x="-195" y="1153" type="line"/>
      <point x="-136" y="1222"/>
      <point x="-83" y="1262"/>
      <point x="0" y="1262" type="curve" smooth="yes"/>
      <point x="83" y="1262"/>
      <point x="136" y="1222"/>
      <point x="195" y="1153" type="curve"/>
      <point x="272" y="1223" type="line"/>
      <point x="187" y="1328"/>
      <point x="112" y="1372"/>
      <point x="0" y="1372" type="curve" smooth="yes"/>
    </contour>
    <contour>
      <point x="0" y="1372" type="move" name="top_case"/>
    </contour>
    <contour>
      <point x="0" y="1003" type="move" name="_top"/>
    </contour>
  </outline>
</glyph>
<glyph name="dotbelowcomb" format="1">
  <advance width="0"/>
  <unicode hex="0323"/>
  <outline>
    <component base="dotaccentcomb" yOffset="-1433"/>
    <contour>
      <point x="0" y="0" type="move" name="_bottom"/>
    </contour>
    <contour>
      <point x="0" y="-279" type="move" name="bottom"/>
    </contour>
  </outline>
</glyph>
<glyph name="dieresisbelowcomb" format="1">
  <advance width="0"/>
  <unicode hex="0324"/>
  <outline>
    <component base="dieresiscomb" yOffset="-1352"/>
    <contour>
      <point x="0" y="0" type="move" name="_bottom"/>
    </contour>
    <contour>
      <point x="0" y="-286" type="move" name="bottom"/>
    </contour>
  </outline>
</glyph>
<glyph name="commaaccentcomb" format="1">
  <advance width="0"/>
  <unicode hex="0326"/>
  <outline>
    <contour>
      <point x="81" y="-240" type="line" smooth="yes"/>
      <point x="81" y="-330"/>
      <point x="42" y="-401"/>
      <point x="-20" y="-461" type="curve"/>
      <point x="-76" y="-415" type="line"/>
      <point x="-30" y="-360"/>
      <point x="-12" y="-307"/>
      <point x="-12" y="-258" type="curve"/>
      <point x="32" y="-279" type="line"/>
      <point x="-81" y="-279" type="line"/>
      <point x="-81" y="-124" type="line"/>
      <point x="81" y="-124" type="line"/>
    </contour>
    <contour>
      <point x="0" y="0" type="move" name="_bottom"/>
    </contour>
    <contour>
      <point x="0" y="-461" type="move" name="bottom"/>
    </contour>
  </outline>
</glyph>
<glyph name="cedillacomb" format="1">
  <advance width="0"/>
  <unicode hex="0327"/>
  <outline>
    <component base="cedilla" xOffset="-440" yOffset="70"/>
    <contour>
      <point x="0" y="0" type="move" name="_cedilla"/>
    </contour>
    <contour>
      <point x="0" y="-391" type="move" name="bottom"/>
    </contour>
  </outline>
</glyph>
<glyph name="ogonekcomb" format="1">
  <advance width="0"/>
  <unicode hex="0328"/>
  <outline>
    <component base="ogonek" xOffset="-562" yOffset="117"/>
    <contour>
      <point x="0" y="0" type="move" name="_ogonek"/>
    </contour>
    <contour>
      <point x="0" y="-346" type="move" name="bottom"/>
    </contour>
  </outline>
</glyph>
<glyph name="brevebelowcomb" format="1">
  <advance width="0"/>
  <unicode hex="032E"/>
  <outline>
    <component base="brevecomb" yOffset="-1325"/>
    <contour>
      <point x="0" y="0" type="move" name="_bottom"/>
    </contour>
    <contour>
      <point x="0" y="-294" type="move" name="bottom"/>
    </contour>
  </outline>
</glyph>
<glyph name="macronbelowcomb" format="1">
  <advance width="0"/>
  <unicode hex="0331"/>
  <outline>
    <component base="macroncomb" yOffset="-1355"/>
    <contour>
      <point x="0" y="0" type="move" name="_bottom"/>
    </contour>
    <contour>
      <point x="0" y="-277" type="move" name="bottom"/>
    </contour>
  </outline>
</glyph>
<glyph name="Germandbls" format="1">
  <advance width="1106"/>
  <unicode hex="1E9E"/>
  <outline>
    <contour>
      <point x="918" y="347" type="curve" smooth="yes"/>
      <point x="918" y="531"/>
      <point x="777" y="624"/>
      <point x="536" y="624" type="curve" smooth="yes"/>
      <point x="457" y="624" type="line"/>
      <point x="457" y="735" type="line"/>
      <point x="877" y="1161" type="line"/>
      <point x="877" y="1109" type="line"/>
      <point x="794" y="1161"/>
      <point x="698" y="1195"/>
      <point x="583" y="1195" type="curve" smooth="yes"/>
      <point x="363" y="1195"/>
      <point x="277" y="1071"/>
      <point x="277" y="811" type="curve" smooth="yes"/>
      <point x="277" y="0" type="line"/>
      <point x="149" y="0" type="line"/>
      <point x="149" y="822" type="line" smooth="yes"/>
      <point x="149" y="1142"/>
      <point x="290" y="1301"/>
      <point x="587" y="1301" type="curve" smooth="yes"/>
      <point x="723" y="1301"/>
      <point x="857" y="1253"/>
      <point x="956" y="1182" type="curve"/>
      <point x="956" y="1080" type="line"/>
      <point x="553" y="680" type="line"/>
      <point x="545" y="735" type="line"/>
      <point x="845" y="735"/>
      <point x="1046" y="592"/>
      <point x="1046" y="347" type="curve" smooth="yes"/>
      <point x="1046" y="130"/>
      <point x="891" y="-10"/>
      <point x="679" y="-10" type="curve" smooth="yes"/>
      <point x="580" y="-10"/>
      <point x="481" y="18"/>
      <point x="396" y="66" type="curve"/>
      <point x="434" y="156" type="line"/>
      <point x="502" y="122"/>
      <point x="587" y="95"/>
      <point x="667" y="95" type="curve" smooth="yes"/>
      <point x="824" y="95"/>
      <point x="918" y="189"/>
    </contour>
  </outline>
</glyph>
<glyph name="quoteleft" format="1">
  <advance width="423"/>
  <unicode hex="2018"/>
  <outline>
    <contour>
      <point x="241" y="958" type="curve"/>
      <point x="112" y="987" type="line"/>
      <point x="149" y="1149"/>
      <point x="194" y="1289"/>
      <point x="244" y="1397" type="curve"/>
      <point x="311" y="1364" type="line"/>
      <point x="278" y="1238"/>
      <point x="257" y="1100"/>
    </contour>
  </outline>
</glyph>
<glyph name="dagger" format="1">
  <advance width="1013"/>
  <unicode hex="2020"/>
  <outline>
    <contour>
      <point x="560" y="0" type="line"/>
      <point x="450" y="0" type="line"/>
      <point x="450" y="888" type="line"/>
      <point x="142" y="888" type="line"/>
      <point x="142" y="985" type="line"/>
      <point x="450" y="985" type="line"/>
      <point x="450" y="1301" type="line"/>
      <point x="560" y="1301" type="line"/>
      <point x="560" y="985" type="line"/>
      <point x="870" y="985" type="line"/>
      <point x="870" y="888" type="line"/>
      <point x="560" y="888" type="line"/>
    </contour>
  </outline>
</glyph>
<glyph name="daggerdbl" format="1">
  <advance width="1025"/>
  <unicode hex="2021"/>
  <outline>
    <contour>
      <point x="566" y="226" type="line"/>
      <point x="566" y="0" type="line"/>
      <point x="456" y="0" type="line"/>
      <point x="456" y="226" type="line"/>
      <point x="148" y="226" type="line"/>
      <point x="148" y="322" type="line"/>
      <point x="456" y="322" type="line"/>
      <point x="456" y="980" type="line"/>
      <point x="148" y="980" type="line"/>
      <point x="148" y="1077" type="line"/>
      <point x="456" y="1077" type="line"/>
      <point x="456" y="1301" type="line"/>
      <point x="566" y="1301" type="line"/>
      <point x="566" y="1077" type="line"/>
      <point x="876" y="1077" type="line"/>
      <point x="876" y="980" type="line"/>
      <point x="566" y="980" type="line"/>
      <point x="566" y="322" type="line"/>
      <point x="876" y="322" type="line"/>
      <point x="876" y="226" type="line"/>
    </contour>
  </outline>
</glyph>
<glyph name="bullet" format="1">
  <advance width="707"/>
  <unicode hex="2022"/>
  <outline>
    <contour>
      <point x="145" y="582" type="curve" smooth="yes"/>
      <point x="145" y="697"/>
      <point x="238" y="790"/>
      <point x="353" y="790" type="curve" smooth="yes"/>
      <point x="468" y="790"/>
      <point x="561" y="697"/>
      <point x="561" y="582" type="curve" smooth="yes"/>
      <point x="561" y="467"/>
      <point x="468" y="374"/>
      <point x="353" y="374" type="curve" smooth="yes"/>
      <point x="238" y="374"/>
      <point x="145" y="467"/>
    </contour>
  </outline>
</glyph>
<glyph name="guilsinglright" format="1">
  <advance width="620"/>
  <unicode hex="203A"/>
  <outline>
    <contour>
      <point x="397" y="526" type="line"/>
      <point x="130" y="823" type="line"/>
      <point x="170" y="934" type="line"/>
      <point x="508" y="573" type="line"/>
      <point x="508" y="483" type="line"/>
      <point x="170" y="123" type="line"/>
      <point x="130" y="236" type="line"/>
    </contour>
  </outline>
</glyph>
<glyph name="fraction" format="1">
  <advance width="814"/>
  <unicode hex="2044"/>
  <outline>
    <contour>
      <point x="675" y="1284" type="line"/>
      <point x="210" y="0" type="line"/>
      <point x="109" y="0" type="line"/>
      <point x="573" y="1284" type="line"/>
    </contour>
  </outline>
</glyph>
<glyph name="foursuperior" format="1">
  <advance width="709"/>
  <unicode hex="2074"/>
  <outline>
    <contour>
      <point x="434" y="488" type="line"/>
      <point x="434" y="670" type="line"/>
      <point x="55" y="670" type="line"/>
      <point x="55" y="762" type="line"/>
      <point x="303" y="1404" type="line"/>
      <point x="402" y="1404" type="line"/>
      <point x="163" y="765" type="line"/>
      <point x="434" y="765" type="line"/>
      <point x="434" y="1057" type="line"/>
      <point x="544" y="1057" type="line"/>
      <point x="544" y="765" type="line"/>
      <point x="659" y="765" type="line"/>
      <point x="659" y="670" type="line"/>
      <point x="544" y="670" type="line"/>
      <point x="544" y="488" type="line"/>
    </contour>
  </outline>
</glyph>
<glyph name="colonsign" format="1">
  <advance width="1014"/>
  <unicode hex="20A1"/>
  <outline>
    <contour>
      <point x="702" y="-10"/>
      <point x="806" y="8"/>
      <point x="923" y="64" type="curve"/>
      <point x="883" y="161" type="line"/>
      <point x="780" y="112"/>
      <point x="693" y="96"/>
      <point x="606" y="96" type="curve" smooth="yes"/>
      <point x="401" y="96"/>
      <point x="246" y="252"/>
      <point x="246" y="638" type="curve" smooth="yes"/>
      <point x="246" y="1092"/>
      <point x="371" y="1195"/>
      <point x="597" y="1195" type="curve" smooth="yes"/>
      <point x="698" y="1195"/>
      <point x="787" y="1168"/>
      <point x="869" y="1120" type="curve"/>
      <point x="916" y="1217" type="line"/>
      <point x="806" y="1277"/>
      <point x="709" y="1301"/>
      <point x="586" y="1301" type="curve" smooth="yes"/>
      <point x="270" y="1301"/>
      <point x="118" y="1114"/>
      <point x="118" y="641" type="curve" smooth="yes"/>
      <point x="118" y="189"/>
      <point x="329" y="-10"/>
      <point x="598" y="-10" type="curve" smooth="yes"/>
    </contour>
    <contour>
      <point x="351" y="-168" type="line"/>
      <point x="691" y="1465" type="line"/>
      <point x="587" y="1465" type="line"/>
      <point x="247" y="-168" type="line"/>
    </contour>
    <contour>
      <point x="541" y="-168" type="line"/>
      <point x="881" y="1465" type="line"/>
      <point x="777" y="1465" type="line"/>
      <point x="437" y="-168" type="line"/>
    </contour>
  </outline>
</glyph>
<glyph name="franc" format="1">
  <advance width="852"/>
  <unicode hex="20A3"/>
  <outline>
    <contour>
      <point x="46" y="308" type="line"/>
      <point x="46" y="402" type="line"/>
      <point x="566" y="402" type="line"/>
      <point x="566" y="308" type="line"/>
    </contour>
    <component base="F"/>
  </outline>
</glyph>
<glyph name="lira" format="1">
  <advance width="913"/>
  <unicode hex="20A4"/>
  <outline>
    <contour>
      <point x="256" y="686" type="line"/>
      <point x="85" y="686" type="line"/>
      <point x="85" y="782" type="line"/>
      <point x="234" y="782" type="line"/>
    </contour>
    <contour>
      <point x="272" y="782" type="line"/>
      <point x="665" y="782" type="line"/>
      <point x="665" y="686" type="line"/>
      <point x="294" y="686" type="line"/>
    </contour>
    <contour>
      <point x="291" y="778"/>
      <point x="374" y="602"/>
      <point x="374" y="413" type="curve" smooth="yes"/>
      <point x="374" y="305"/>
      <point x="346" y="195"/>
      <point x="250" y="96" type="curve"/>
      <point x="822" y="96" type="line"/>
      <point x="823" y="0" type="line"/>
      <point x="156" y="-1" type="line"/>
      <point x="117" y="117" type="line"/>
      <point x="200" y="204"/>
      <point x="261" y="307"/>
      <point x="261" y="455" type="curve" smooth="yes"/>
      <point x="261" y="624"/>
      <point x="178" y="772"/>
      <point x="178" y="954" type="curve" smooth="yes"/>
      <point x="178" y="1183"/>
      <point x="315" y="1303"/>
      <point x="549" y="1303" type="curve" smooth="yes"/>
      <point x="634" y="1303"/>
      <point x="721" y="1276"/>
      <point x="797" y="1221" type="curve"/>
      <point x="755" y="1128" type="line"/>
      <point x="694" y="1171"/>
      <point x="621" y="1195"/>
      <point x="551" y="1195" type="curve" smooth="yes"/>
      <point x="374" y="1195"/>
      <point x="291" y="1104"/>
      <point x="291" y="938" type="curve" smooth="yes"/>
    </contour>
    <contour>
      <point x="306" y="454" type="line"/>
      <point x="85" y="454" type="line"/>
      <point x="85" y="550" type="line"/>
      <point x="284" y="550" type="line"/>
    </contour>
    <contour>
      <point x="322" y="550" type="line"/>
      <point x="665" y="550" type="line"/>
      <point x="665" y="454" type="line"/>
      <point x="344" y="454" type="line"/>
    </contour>
  </outline>
</glyph>
<glyph name="naira" format="1">
  <advance width="1075"/>
  <unicode hex="20A6"/>
  <outline>
    <contour>
      <point x="1053" y="835" type="line"/>
      <point x="1053" y="739" type="line"/>
      <point x="22" y="739" type="line"/>
      <point x="22" y="835" type="line"/>
    </contour>
    <contour>
      <point x="1053" y="555" type="line"/>
      <point x="1053" y="459" type="line"/>
      <point x="22" y="459" type="line"/>
      <point x="22" y="555" type="line"/>
    </contour>
    <component base="N" xScale="0.9"/>
  </outline>
</glyph>
<glyph name="peseta" format="1">
  <advance width="2201"/>
  <unicode hex="20A7"/>
  <outline>
    <contour>
      <point x="418" y="1284" type="line" smooth="yes"/>
      <point x="699" y="1284"/>
      <point x="837" y="1163"/>
      <point x="837" y="915" type="curve" smooth="yes"/>
      <point x="837" y="661"/>
      <point x="705" y="536"/>
      <point x="434" y="536" type="curve" smooth="yes"/>
      <point x="277" y="536" type="line"/>
      <point x="277" y="0" type="line"/>
      <point x="149" y="0" type="line"/>
      <point x="149" y="1284" type="line"/>
    </contour>
    <contour>
      <point x="277" y="640" type="line"/>
      <point x="421" y="640" type="line" smooth="yes"/>
      <point x="616" y="640"/>
      <point x="709" y="676"/>
      <point x="709" y="912" type="curve" smooth="yes"/>
      <point x="709" y="1129"/>
      <point x="614" y="1184"/>
      <point x="426" y="1184" type="curve" smooth="yes"/>
      <point x="277" y="1184" type="line"/>
    </contour>
    <contour>
      <point x="1298" y="-10" type="curve" smooth="yes"/>
      <point x="1096" y="-4"/>
      <point x="1050" y="119"/>
      <point x="1050" y="388" type="curve" smooth="yes"/>
      <point x="1050" y="895" type="line"/>
      <point x="897" y="895" type="line"/>
      <point x="897" y="985" type="line"/>
      <point x="1054" y="985" type="line"/>
      <point x="1079" y="1267" type="line"/>
      <point x="1178" y="1267" type="line"/>
      <point x="1178" y="985" type="line"/>
      <point x="1426" y="985" type="line"/>
      <point x="1426" y="895" type="line"/>
      <point x="1178" y="895" type="line"/>
      <point x="1178" y="386" type="line" smooth="yes"/>
      <point x="1178" y="123"/>
      <point x="1235" y="96"/>
      <point x="1332" y="96" type="curve" smooth="yes"/>
      <point x="1380" y="96"/>
      <point x="1425" y="101"/>
      <point x="1447" y="107" type="curve"/>
      <point x="1452" y="4" type="line"/>
      <point x="1400" y="-6"/>
      <point x="1348" y="-10"/>
    </contour>
    <contour>
      <point x="1543" y="167" type="line"/>
      <point x="1606" y="135"/>
      <point x="1717" y="96"/>
      <point x="1806" y="96" type="curve" smooth="yes"/>
      <point x="1910" y="96"/>
      <point x="2000" y="137"/>
      <point x="2000" y="265" type="curve" smooth="yes"/>
      <point x="2000" y="355"/>
      <point x="1957" y="411"/>
      <point x="1869" y="437" type="curve" smooth="yes"/>
      <point x="1749" y="472" type="line" smooth="yes"/>
      <point x="1615" y="511"/>
      <point x="1526" y="572"/>
      <point x="1526" y="745" type="curve" smooth="yes"/>
      <point x="1526" y="929"/>
      <point x="1678" y="1000"/>
      <point x="1846" y="1000" type="curve" smooth="yes"/>
      <point x="1942" y="1000"/>
      <point x="2018" y="982"/>
      <point x="2091" y="948" type="curve"/>
      <point x="2053" y="852" type="line"/>
      <point x="1998" y="877"/>
      <point x="1929" y="895"/>
      <point x="1855" y="895" type="curve" smooth="yes"/>
      <point x="1745" y="895"/>
      <point x="1648" y="855"/>
      <point x="1648" y="740" type="curve" smooth="yes"/>
      <point x="1648" y="647"/>
      <point x="1701" y="613"/>
      <point x="1787" y="587" type="curve" smooth="yes"/>
      <point x="1904" y="552" type="line" smooth="yes"/>
      <point x="2062" y="505"/>
      <point x="2125" y="425"/>
      <point x="2125" y="271" type="curve" smooth="yes"/>
      <point x="2125" y="63"/>
      <point x="1977" y="-10"/>
      <point x="1812" y="-10" type="curve" smooth="yes"/>
      <point x="1707" y="-10"/>
      <point x="1592" y="23"/>
      <point x="1502" y="69" type="curve"/>
    </contour>
  </outline>
</glyph>
<glyph name="won" format="1">
  <advance width="1381"/>
  <unicode hex="20A9"/>
  <outline>
    <contour>
      <point x="1281" y="845" type="line"/>
      <point x="1281" y="749" type="line"/>
      <point x="100" y="749" type="line"/>
      <point x="100" y="845" type="line"/>
    </contour>
    <contour>
      <point x="1281" y="605" type="line"/>
      <point x="1281" y="509" type="line"/>
      <point x="100" y="509" type="line"/>
      <point x="100" y="605" type="line"/>
    </contour>
    <contour>
      <point x="390" y="185" type="line"/>
      <point x="633" y="1156" type="line"/>
      <point x="748" y="1156" type="line"/>
      <point x="1001" y="183" type="line"/>
      <point x="1097" y="1284" type="line"/>
      <point x="1215" y="1284" type="line"/>
      <point x="1095" y="0" type="line"/>
      <point x="953" y="0" type="line"/>
      <point x="691" y="992" type="line"/>
      <point x="437" y="0" type="line"/>
      <point x="296" y="0" type="line"/>
      <point x="167" y="1284" type="line"/>
      <point x="285" y="1284" type="line"/>
    </contour>
  </outline>
</glyph>
<glyph name="dong" format="1">
  <advance width="1010"/>
  <unicode hex="20AB"/>
  <outline>
    <contour>
      <point x="870" y="-91" type="line"/>
      <point x="870" y="-197" type="line"/>
      <point x="127" y="-197" type="line"/>
      <point x="127" y="-91" type="line"/>
    </contour>
    <component base="dcroat"/>
  </outline>
</glyph>
<glyph name="kip" format="1">
  <advance width="1032"/>
  <unicode hex="20AD"/>
  <outline>
    <contour>
      <point x="277" y="0" type="line"/>
      <point x="149" y="0" type="line"/>
      <point x="149" y="1284" type="line"/>
      <point x="277" y="1284" type="line"/>
      <point x="277" y="669" type="line"/>
      <point x="825" y="1284" type="line"/>
      <point x="975" y="1284" type="line"/>
      <point x="394" y="642" type="line"/>
      <point x="1001" y="0" type="line"/>
      <point x="851" y="0" type="line"/>
      <point x="277" y="610" type="line"/>
    </contour>
    <contour>
      <point x="260" y="692" type="line"/>
      <point x="277" y="651" type="line"/>
      <point x="314" y="692" type="line"/>
      <point x="761" y="692" type="line"/>
      <point x="761" y="588" type="line"/>
      <point x="314" y="588" type="line"/>
      <point x="277" y="628" type="line"/>
      <point x="260" y="588" type="line"/>
      <point x="37" y="588" type="line"/>
      <point x="37" y="692" type="line"/>
    </contour>
  </outline>
</glyph>
<glyph name="peso" format="1">
  <advance width="1102"/>
  <unicode hex="20B1"/>
  <outline>
    <contour>
      <point x="511" y="1284" type="line" smooth="yes"/>
      <point x="770" y="1284"/>
      <point x="930" y="1189"/>
      <point x="930" y="855" type="curve" smooth="yes"/>
      <point x="930" y="505"/>
      <point x="742" y="436"/>
      <point x="397" y="436" type="curve" smooth="yes"/>
      <point x="290" y="436" type="line"/>
      <point x="290" y="0" type="line"/>
      <point x="162" y="0" type="line"/>
      <point x="162" y="1284" type="line"/>
    </contour>
    <contour>
      <point x="290" y="540" type="line"/>
      <point x="374" y="540" type="line" smooth="yes"/>
      <point x="664" y="540"/>
      <point x="802" y="548"/>
      <point x="802" y="853" type="curve" smooth="yes"/>
      <point x="802" y="1117"/>
      <point x="707" y="1184"/>
      <point x="519" y="1184" type="curve" smooth="yes"/>
      <point x="290" y="1184" type="line"/>
    </contour>
    <contour>
      <point x="1042" y="786" type="line"/>
      <point x="1042" y="690" type="line"/>
      <point x="60" y="690" type="line"/>
      <point x="60" y="786" type="line"/>
    </contour>
    <contour>
      <point x="1042" y="1034" type="line"/>
      <point x="1042" y="938" type="line"/>
      <point x="60" y="938" type="line"/>
      <point x="60" y="1034" type="line"/>
    </contour>
  </outline>
</glyph>
<glyph name="guarani" format="1">
  <advance width="1094"/>
  <unicode hex="20B2"/>
  <outline>
    <contour>
      <point x="537" y="1465" type="line"/>
      <point x="621" y="1465" type="line"/>
      <point x="621" y="-188" type="line"/>
      <point x="537" y="-188" type="line"/>
    </contour>
    <component base="G"/>
  </outline>
</glyph>
<glyph name="cedi" format="1">
  <advance width="1014"/>
  <unicode hex="20B5"/>
  <outline>
    <contour>
      <point x="527" y="1465" type="line"/>
      <point x="611" y="1465" type="line"/>
      <point x="611" y="-188" type="line"/>
      <point x="527" y="-188" type="line"/>
    </contour>
    <component base="C"/>
  </outline>
</glyph>
<glyph name="rupeeIndian" format="1">
  <advance width="932"/>
  <unicode hex="20B9"/>
  <outline>
    <contour>
      <point x="774" y="0" type="line"/>
      <point x="204" y="598" type="line"/>
      <point x="200" y="562" type="line"/>
      <point x="547" y="562"/>
      <point x="730" y="624"/>
      <point x="730" y="922" type="curve" smooth="yes"/>
      <point x="730" y="1072"/>
      <point x="686" y="1161"/>
      <point x="599" y="1212" type="curve"/>
      <point x="598" y="1184" type="line"/>
      <point x="842" y="1184" type="line"/>
      <point x="842" y="1284" type="line"/>
      <point x="90" y="1284" type="line"/>
      <point x="90" y="1184" type="line"/>
      <point x="209" y="1184" type="line" smooth="yes"/>
      <point x="473" y="1184"/>
      <point x="608" y="1166"/>
      <point x="608" y="920" type="curve" smooth="yes"/>
      <point x="608" y="697"/>
      <point x="508" y="662"/>
      <point x="181" y="662" type="curve" smooth="yes"/>
      <point x="90" y="662" type="line"/>
      <point x="90" y="562" type="line"/>
      <point x="619" y="0" type="line"/>
    </contour>
    <contour>
      <point x="842" y="874" type="line"/>
      <point x="842" y="974" type="line"/>
      <point x="90" y="974" type="line"/>
      <point x="90" y="874" type="line"/>
    </contour>
  </outline>
</glyph>
<glyph name="liraTurkish" format="1">
  <advance width="1004"/>
  <unicode hex="20BA"/>
  <outline>
    <contour>
      <point x="456" y="0" type="line" smooth="yes"/>
      <point x="810" y="0"/>
      <point x="924" y="142"/>
      <point x="924" y="586" type="curve"/>
      <point x="796" y="586" type="line"/>
      <point x="796" y="197"/>
      <point x="728" y="100"/>
      <point x="456" y="100" type="curve" smooth="yes"/>
      <point x="300" y="100" type="line"/>
      <point x="300" y="1284" type="line"/>
      <point x="172" y="1284" type="line"/>
      <point x="172" y="0" type="line"/>
    </contour>
    <contour>
      <point x="822" y="724" type="line"/>
      <point x="822" y="824" type="line"/>
      <point x="60" y="604" type="line"/>
      <point x="60" y="504" type="line"/>
    </contour>
    <contour>
      <point x="822" y="924" type="line"/>
      <point x="822" y="1024" type="line"/>
      <point x="60" y="804" type="line"/>
      <point x="60" y="704" type="line"/>
    </contour>
  </outline>
</glyph>
<glyph name="manat" format="1">
  <advance width="1128"/>
  <unicode hex="20BC"/>
  <outline>
    <contour>
      <point x="116" y="0" type="line"/>
      <point x="244" y="0" type="line"/>
      <point x="244" y="504" type="line" smooth="yes"/>
      <point x="244" y="777"/>
      <point x="317" y="894"/>
      <point x="564" y="894" type="curve" smooth="yes"/>
      <point x="811" y="894"/>
      <point x="884" y="777"/>
      <point x="884" y="504" type="curve" smooth="yes"/>
      <point x="884" y="0" type="line"/>
      <point x="1012" y="0" type="line"/>
      <point x="1012" y="504" type="line" smooth="yes"/>
      <point x="1012" y="821"/>
      <point x="913" y="1000"/>
      <point x="564" y="1000" type="curve" smooth="yes"/>
      <point x="215" y="1000"/>
      <point x="116" y="821"/>
      <point x="116" y="504" type="curve" smooth="yes"/>
    </contour>
    <contour>
      <point x="628" y="0" type="line"/>
      <point x="628" y="1284" type="line"/>
      <point x="500" y="1284" type="line"/>
      <point x="500" y="0" type="line"/>
    </contour>
  </outline>
</glyph>
<glyph name="ruble" format="1">
  <advance width="1020"/>
  <unicode hex="20BD"/>
  <outline>
    <contour>
      <point x="511" y="1284" type="line" smooth="yes"/>
      <point x="770" y="1284"/>
      <point x="930" y="1198"/>
      <point x="930" y="895" type="curve" smooth="yes"/>
      <point x="930" y="578"/>
      <point x="742" y="516"/>
      <point x="397" y="516" type="curve" smooth="yes"/>
      <point x="290" y="516" type="line"/>
      <point x="290" y="0" type="line"/>
      <point x="162" y="0" type="line"/>
      <point x="162" y="1284" type="line"/>
    </contour>
    <contour>
      <point x="290" y="620" type="line"/>
      <point x="374" y="620" type="line" smooth="yes"/>
      <point x="664" y="620"/>
      <point x="802" y="627"/>
      <point x="802" y="893" type="curve" smooth="yes"/>
      <point x="802" y="1125"/>
      <point x="707" y="1184"/>
      <point x="519" y="1184" type="curve" smooth="yes"/>
      <point x="290" y="1184" type="line"/>
    </contour>
    <contour>
      <point x="702" y="326" type="line"/>
      <point x="702" y="230" type="line"/>
      <point x="60" y="230" type="line"/>
      <point x="60" y="326" type="line"/>
    </contour>
  </outline>
</glyph>
<glyph name="numero" format="1">
  <advance width="2038"/>
  <unicode hex="2116"/>
  <outline>
    <contour>
      <point x="1780" y="1088"/>
      <point x="1702" y="1203"/>
      <point x="1544" y="1203" type="curve" smooth="yes"/>
      <point x="1386" y="1203"/>
      <point x="1308" y="1088"/>
      <point x="1308" y="853" type="curve" smooth="yes"/>
      <point x="1308" y="619"/>
      <point x="1386" y="504"/>
      <point x="1544" y="504" type="curve" smooth="yes"/>
      <point x="1702" y="504"/>
      <point x="1780" y="619"/>
      <point x="1780" y="853" type="curve" smooth="yes"/>
    </contour>
    <contour>
      <point x="1908" y="547"/>
      <point x="1788" y="398"/>
      <point x="1544" y="398" type="curve" smooth="yes"/>
      <point x="1300" y="398"/>
      <point x="1180" y="547"/>
      <point x="1180" y="853" type="curve" smooth="yes"/>
      <point x="1180" y="1159"/>
      <point x="1300" y="1308"/>
      <point x="1544" y="1308" type="curve" smooth="yes"/>
      <point x="1788" y="1308"/>
      <point x="1908" y="1159"/>
      <point x="1908" y="853" type="curve" smooth="yes"/>
    </contour>
    <contour>
      <point x="1210" y="188" type="line"/>
      <point x="1878" y="188" type="line"/>
      <point x="1878" y="294" type="line"/>
      <point x="1210" y="294" type="line"/>
    </contour>
    <component base="N"/>
  </outline>
</glyph>
<glyph name="emptyset" format="1">
  <advance width="1327"/>
  <unicode hex="2205"/>
  <outline>
    <contour>
      <point x="1227" y="1035" type="line"/>
      <point x="1166" y="1098" type="line"/>
      <point x="100" y="106" type="line"/>
      <point x="161" y="43" type="line"/>
    </contour>
    <contour>
      <point x="928" y="96"/>
      <point x="1144" y="314"/>
      <point x="1144" y="576" type="curve" smooth="yes"/>
      <point x="1144" y="840"/>
      <point x="928" y="1054"/>
      <point x="666" y="1054" type="curve" smooth="yes"/>
      <point x="402" y="1054"/>
      <point x="188" y="840"/>
      <point x="188" y="576" type="curve" smooth="yes"/>
      <point x="188" y="314"/>
      <point x="402" y="96"/>
      <point x="666" y="96" type="curve" smooth="yes"/>
    </contour>
    <contour>
      <point x="454" y="194"/>
      <point x="284" y="364"/>
      <point x="284" y="576" type="curve" smooth="yes"/>
      <point x="284" y="786"/>
      <point x="454" y="956"/>
      <point x="666" y="956" type="curve" smooth="yes"/>
      <point x="876" y="956"/>
      <point x="1048" y="786"/>
      <point x="1048" y="576" type="curve" smooth="yes"/>
      <point x="1048" y="364"/>
      <point x="876" y="194"/>
      <point x="666" y="194" type="curve" smooth="yes"/>
    </contour>
  </outline>
</glyph>
<glyph name="approxequal" format="1">
  <advance width="1146"/>
  <unicode hex="2248"/>
  <outline>
    <contour>
      <point x="932" y="627"/>
      <point x="883" y="578"/>
      <point x="776" y="578" type="curve" smooth="yes"/>
      <point x="623" y="578"/>
      <point x="508" y="746"/>
      <point x="386" y="746" type="curve" smooth="yes"/>
      <point x="316" y="746"/>
      <point x="266" y="693"/>
      <point x="197" y="609" type="curve"/>
      <point x="125" y="667" type="line"/>
      <point x="211" y="786"/>
      <point x="286" y="848"/>
      <point x="380" y="848" type="curve" smooth="yes"/>
      <point x="534" y="848"/>
      <point x="649" y="683"/>
      <point x="777" y="683" type="curve" smooth="yes"/>
      <point x="847" y="683"/>
      <point x="899" y="729"/>
      <point x="966" y="810" type="curve"/>
      <point x="1034" y="744" type="line"/>
    </contour>
    <contour>
      <point x="932" y="245"/>
      <point x="883" y="196"/>
      <point x="776" y="196" type="curve" smooth="yes"/>
      <point x="623" y="196"/>
      <point x="508" y="364"/>
      <point x="386" y="364" type="curve" smooth="yes"/>
      <point x="316" y="364"/>
      <point x="266" y="311"/>
      <point x="197" y="227" type="curve"/>
      <point x="125" y="285" type="line"/>
      <point x="211" y="404"/>
      <point x="286" y="466"/>
      <point x="380" y="466" type="curve" smooth="yes"/>
      <point x="534" y="466"/>
      <point x="649" y="301"/>
      <point x="777" y="301" type="curve" smooth="yes"/>
      <point x="847" y="301"/>
      <point x="899" y="347"/>
      <point x="966" y="428" type="curve"/>
      <point x="1034" y="362" type="line"/>
    </contour>
  </outline>
</glyph>
<glyph name="acutecomb.case" format="1">
  <advance width="0"/>
  <outline>
    <contour>
      <point x="-207" y="1152" type="line"/>
      <point x="118" y="1418" type="line"/>
      <point x="200" y="1314" type="line"/>
      <point x="78" y="1233" type="line" smooth="yes"/>
      <point x="25" y="1198"/>
      <point x="-88" y="1134"/>
      <point x="-168" y="1091" type="curve"/>
    </contour>
    <contour>
      <point x="0" y="985" type="move" name="_top_case"/>
    </contour>
    <contour>
      <point x="0" y="1363" type="move" name="top_case"/>
    </contour>
  </outline>
</glyph>
<glyph name="caroncomb.alt" format="1">
  <advance width="0"/>
  <outline>
    <contour>
      <point x="162" y="1160" type="line" smooth="yes"/>
      <point x="162" y="1070"/>
      <point x="123" y="999"/>
      <point x="61" y="939" type="curve"/>
      <point x="5" y="985" type="line"/>
      <point x="51" y="1040"/>
      <point x="69" y="1093"/>
      <point x="69" y="1142" type="curve"/>
      <point x="113" y="1121" type="line"/>
      <point x="0" y="1121" type="line"/>
      <point x="0" y="1276" type="line"/>
      <point x="162" y="1276" type="line"/>
    </contour>
    <contour>
      <point x="0" y="1276" type="move" name="_topright"/>
    </contour>
  </outline>
</glyph>
<glyph name="caroncomb.case" format="1">
  <advance width="0"/>
  <outline>
    <contour>
      <point x="0" y="1206" type="line"/>
      <point x="198" y="1399" type="line"/>
      <point x="280" y="1333" type="line"/>
      <point x="208" y="1259"/>
      <point x="132" y="1189"/>
      <point x="52" y="1122" type="curve" smooth="yes"/>
      <point x="33" y="1106"/>
      <point x="16" y="1093"/>
      <point x="0" y="1093" type="curve" smooth="yes"/>
      <point x="-17" y="1093"/>
      <point x="-32" y="1106"/>
      <point x="-51" y="1122" type="curve" smooth="yes"/>
      <point x="-131" y="1189"/>
      <point x="-207" y="1259"/>
      <point x="-279" y="1333" type="curve"/>
      <point x="-197" y="1399" type="line"/>
    </contour>
    <contour>
      <point x="0" y="985" type="move" name="_top_case"/>
    </contour>
    <contour>
      <point x="0" y="1284" type="move" name="top_case"/>
    </contour>
  </outline>
</glyph>
<glyph name="circumflexcomb.case" format="1">
  <advance width="0"/>
  <outline>
    <contour>
      <point x="1" y="1284" type="line"/>
      <point x="-212" y="1102" type="line"/>
      <point x="-298" y="1182" type="line"/>
      <point x="-215" y="1250"/>
      <point x="-152" y="1303"/>
      <point x="-52" y="1373" type="curve"/>
      <point x="53" y="1373" type="line"/>
      <point x="153" y="1303"/>
      <point x="216" y="1250"/>
      <point x="299" y="1182" type="curve"/>
      <point x="213" y="1102" type="line"/>
    </contour>
    <contour>
      <point x="1" y="985" type="move" name="_top_case"/>
    </contour>
    <contour>
      <point x="1" y="1374" type="move" name="top_case"/>
    </contour>
  </outline>
</glyph>
<glyph name="commaaccentcomb.alt" format="1">
  <advance width="0"/>
  <outline>
    <contour>
      <point x="-81" y="1215" type="line" smooth="yes"/>
      <point x="-81" y="1305"/>
      <point x="-42" y="1376"/>
      <point x="20" y="1436" type="curve"/>
      <point x="76" y="1390" type="line"/>
      <point x="30" y="1335"/>
      <point x="12" y="1282"/>
      <point x="12" y="1233" type="curve"/>
      <point x="-32" y="1254" type="line"/>
      <point x="81" y="1254" type="line"/>
      <point x="81" y="1099" type="line"/>
      <point x="-81" y="1099" type="line"/>
    </contour>
    <contour>
      <point x="0" y="1376" type="move" name="top_case"/>
    </contour>
    <contour>
      <point x="0" y="985" type="move" name="_top"/>
    </contour>
  </outline>
</glyph>
<glyph name="dblgravecomb.case" format="1">
  <advance width="0"/>
  <outline>
    <component base="dblgravecomb" xOffset="40" yOffset="20"/>
    <contour>
      <point x="1" y="985" type="move" name="_top_case"/>
    </contour>
    <contour>
      <point x="1" y="1341" type="move" name="top_case"/>
    </contour>
  </outline>
</glyph>
<glyph name="dieresiscomb.case" format="1">
  <advance width="0"/>
  <outline>
    <component base="dieresiscomb" yOffset="-20"/>
    <contour>
      <point x="0" y="985" type="move" name="_top_case"/>
    </contour>
    <contour>
      <point x="0" y="1214" type="move" name="top_case"/>
    </contour>
  </outline>
</glyph>
<glyph name="dotaccentcomb.case" format="1">
  <advance width="0"/>
  <outline>
    <component base="dotaccentcomb" yOffset="-20"/>
    <contour>
      <point x="0" y="985" type="move" name="_top_case"/>
    </contour>
    <contour>
      <point x="0" y="1274" type="move" name="top_case"/>
    </contour>
  </outline>
</glyph>
<glyph name="f_f_ij" format="1">
  <advance width="2568"/>
  <outline>
    <contour>
      <point x="2292" y="1176"/>
      <point x="2252" y="1208"/>
      <point x="2252" y="1264" type="curve" smooth="yes"/>
      <point x="2252" y="1321"/>
      <point x="2292" y="1356"/>
      <point x="2343" y="1356" type="curve" smooth="yes"/>
      <point x="2396" y="1356"/>
      <point x="2433" y="1326"/>
      <point x="2433" y="1266" type="curve" smooth="yes"/>
      <point x="2433" y="1206"/>
      <point x="2396" y="1176"/>
      <point x="2343" y="1176" type="curve" smooth="yes"/>
    </contour>
    <contour>
      <point x="2041" y="-177"/>
      <point x="2081" y="-182"/>
      <point x="2144" y="-182" type="curve" smooth="yes"/>
      <point x="2257" y="-182"/>
      <point x="2281" y="-123"/>
      <point x="2281" y="28" type="curve" smooth="yes"/>
      <point x="2281" y="895" type="line"/>
      <point x="2057" y="895" type="line"/>
      <point x="2057" y="985" type="line"/>
      <point x="2409" y="985" type="line"/>
      <point x="2409" y="18" type="line" smooth="yes"/>
      <point x="2409" y="-203"/>
      <point x="2320" y="-295"/>
      <point x="2148" y="-295" type="curve" smooth="yes"/>
      <point x="2091" y="-295"/>
      <point x="2035" y="-291"/>
      <point x="1980" y="-275" type="curve"/>
      <point x="1996" y="-166" type="line"/>
    </contour>
    <contour>
      <point x="1587" y="1176"/>
      <point x="1547" y="1208"/>
      <point x="1547" y="1264" type="curve" smooth="yes"/>
      <point x="1547" y="1321"/>
      <point x="1587" y="1356"/>
      <point x="1638" y="1356" type="curve" smooth="yes"/>
      <point x="1691" y="1356"/>
      <point x="1728" y="1326"/>
      <point x="1728" y="1266" type="curve" smooth="yes"/>
      <point x="1728" y="1206"/>
      <point x="1691" y="1176"/>
      <point x="1638" y="1176" type="curve" smooth="yes"/>
    </contour>
    <contour>
      <point x="897" y="0" type="line"/>
      <point x="897" y="895" type="line"/>
      <point x="382" y="893" type="line"/>
      <point x="382" y="0" type="line"/>
      <point x="254" y="0" type="line"/>
      <point x="254" y="893" type="line"/>
      <point x="62" y="893" type="line"/>
      <point x="62" y="985" type="line"/>
      <point x="254" y="985" type="line"/>
      <point x="254" y="1271"/>
      <point x="299" y="1387"/>
      <point x="512" y="1394" type="curve"/>
      <point x="568" y="1394"/>
      <point x="631" y="1391"/>
      <point x="698" y="1368" type="curve"/>
      <point x="682" y="1268" type="line"/>
      <point x="660" y="1274"/>
      <point x="578" y="1289"/>
      <point x="540" y="1289" type="curve" smooth="yes"/>
      <point x="424" y="1289"/>
      <point x="382" y="1250"/>
      <point x="382" y="985" type="curve"/>
      <point x="897" y="985" type="line"/>
      <point x="897" y="1271"/>
      <point x="943" y="1387"/>
      <point x="1156" y="1394" type="curve"/>
      <point x="1212" y="1394"/>
      <point x="1274" y="1391"/>
      <point x="1341" y="1368" type="curve"/>
      <point x="1325" y="1268" type="line"/>
      <point x="1303" y="1274"/>
      <point x="1222" y="1289"/>
      <point x="1184" y="1289" type="curve" smooth="yes"/>
      <point x="1068" y="1289"/>
      <point x="1025" y="1250"/>
      <point x="1025" y="985" type="curve"/>
      <point x="1702" y="985" type="line"/>
      <point x="1702" y="90" type="line"/>
      <point x="1894" y="90" type="line"/>
      <point x="1894" y="0" type="line"/>
      <point x="1382" y="0" type="line"/>
      <point x="1382" y="90" type="line"/>
      <point x="1574" y="90" type="line"/>
      <point x="1574" y="895" type="line"/>
      <point x="1025" y="895" type="line"/>
      <point x="1025" y="0" type="line"/>
    </contour>
  </outline>
</glyph>
<glyph name="f_ij" format="1">
  <advance width="1941"/>
  <outline>
    <contour>
      <point x="254" y="0" type="line"/>
      <point x="254" y="895" type="line"/>
      <point x="62" y="895" type="line"/>
      <point x="62" y="985" type="line"/>
      <point x="254" y="985" type="line"/>
      <point x="254" y="1271"/>
      <point x="300" y="1387"/>
      <point x="513" y="1394" type="curve"/>
      <point x="569" y="1394"/>
      <point x="631" y="1391"/>
      <point x="698" y="1368" type="curve"/>
      <point x="682" y="1268" type="line"/>
      <point x="660" y="1274"/>
      <point x="579" y="1289"/>
      <point x="541" y="1289" type="curve" smooth="yes"/>
      <point x="425" y="1289"/>
      <point x="382" y="1250"/>
      <point x="382" y="985" type="curve"/>
      <point x="1075" y="985" type="line"/>
      <point x="1075" y="90" type="line"/>
      <point x="1267" y="90" type="line"/>
      <point x="1267" y="0" type="line"/>
      <point x="755" y="0" type="line"/>
      <point x="755" y="90" type="line"/>
      <point x="947" y="90" type="line"/>
      <point x="947" y="895" type="line"/>
      <point x="382" y="895" type="line"/>
      <point x="382" y="0" type="line"/>
    </contour>
    <contour>
      <point x="960" y="1176"/>
      <point x="920" y="1208"/>
      <point x="920" y="1264" type="curve" smooth="yes"/>
      <point x="920" y="1321"/>
      <point x="960" y="1356"/>
      <point x="1011" y="1356" type="curve" smooth="yes"/>
      <point x="1064" y="1356"/>
      <point x="1101" y="1326"/>
      <point x="1101" y="1266" type="curve" smooth="yes"/>
      <point x="1101" y="1206"/>
      <point x="1064" y="1176"/>
      <point x="1011" y="1176" type="curve" smooth="yes"/>
    </contour>
    <contour>
      <point x="1625" y="1264" type="curve" smooth="yes"/>
      <point x="1625" y="1321"/>
      <point x="1665" y="1356"/>
      <point x="1716" y="1356" type="curve" smooth="yes"/>
      <point x="1769" y="1356"/>
      <point x="1806" y="1326"/>
      <point x="1806" y="1266" type="curve" smooth="yes"/>
      <point x="1806" y="1206"/>
      <point x="1769" y="1176"/>
      <point x="1716" y="1176" type="curve" smooth="yes"/>
      <point x="1665" y="1176"/>
      <point x="1625" y="1208"/>
    </contour>
    <contour>
      <point x="1517" y="-182" type="curve" smooth="yes"/>
      <point x="1630" y="-182"/>
      <point x="1654" y="-123"/>
      <point x="1654" y="28" type="curve" smooth="yes"/>
      <point x="1654" y="895" type="line"/>
      <point x="1430" y="895" type="line"/>
      <point x="1430" y="985" type="line"/>
      <point x="1782" y="985" type="line"/>
      <point x="1782" y="18" type="line" smooth="yes"/>
      <point x="1782" y="-203"/>
      <point x="1693" y="-295"/>
      <point x="1521" y="-295" type="curve" smooth="yes"/>
      <point x="1464" y="-295"/>
      <point x="1408" y="-291"/>
      <point x="1353" y="-275" type="curve"/>
      <point x="1369" y="-166" type="line"/>
      <point x="1414" y="-177"/>
      <point x="1454" y="-182"/>
    </contour>
  </outline>
</glyph>
<glyph name="gravecomb.case" format="1">
  <advance width="0"/>
  <outline>
    <contour>
      <point x="208" y="1152" type="line"/>
      <point x="169" y="1091" type="line"/>
      <point x="90" y="1126"/>
      <point x="-18" y="1186"/>
      <point x="-72" y="1224" type="curve" smooth="yes"/>
      <point x="-199" y="1314" type="line"/>
      <point x="-117" y="1418" type="line"/>
    </contour>
    <contour>
      <point x="0" y="991" type="move" name="_top_case"/>
    </contour>
    <contour>
      <point x="0" y="1356" type="move" name="top_case"/>
    </contour>
  </outline>
</glyph>
<glyph name="hungarumlautcomb.case" format="1">
  <advance width="0"/>
  <outline>
    <component base="hungarumlaut" xOffset="-272" yOffset="100"/>
    <contour>
      <point x="0" y="985" type="move" name="_top_case"/>
    </contour>
    <contour>
      <point x="0" y="1363" type="move" name="top_case"/>
    </contour>
  </outline>
</glyph>
<glyph name="macroncomb.case" format="1">
  <advance width="0"/>
  <outline>
    <component base="macroncomb" yOffset="2"/>
    <contour>
      <point x="0" y="985" type="move" name="_top_case"/>
    </contour>
    <contour>
      <point x="0" y="1284" type="move" name="top_case"/>
    </contour>
  </outline>
</glyph>
<glyph name="periodcentered.loclCAT.case" format="1">
  <advance width="460"/>
  <outline>
    <component base="periodcentered.loclCAT"/>
    <contour>
      <point x="230" y="652" type="move" name="_center"/>
    </contour>
  </outline>
</glyph>
<glyph name="periodcentered.loclCAT" format="1">
  <advance width="460"/>
  <outline>
    <contour>
      <point x="315" y="756" type="line"/>
      <point x="315" y="544" type="line"/>
      <point x="145" y="544" type="line"/>
      <point x="145" y="756" type="line"/>
    </contour>
    <contour>
      <point x="230" y="652" type="move" name="_center"/>
    </contour>
  </outline>
</glyph>
<glyph name="ringcomb.case" format="1">
  <advance width="0"/>
  <outline>
    <contour>
      <point x="1" y="968" type="curve" smooth="yes"/>
      <point x="-139" y="968"/>
      <point x="-233" y="1050"/>
      <point x="-233" y="1170" type="curve" smooth="yes"/>
      <point x="-233" y="1296"/>
      <point x="-135" y="1373"/>
      <point x="1" y="1373" type="curve" smooth="yes"/>
      <point x="137" y="1373"/>
      <point x="233" y="1291"/>
      <point x="233" y="1170" type="curve" smooth="yes"/>
      <point x="233" y="1047"/>
      <point x="135" y="968"/>
    </contour>
    <contour>
      <point x="137" y="1170" type="curve" smooth="yes"/>
      <point x="137" y="1243"/>
      <point x="88" y="1289"/>
      <point x="1" y="1289" type="curve" smooth="yes"/>
      <point x="-83" y="1289"/>
      <point x="-136" y="1242"/>
      <point x="-136" y="1170" type="curve" smooth="yes"/>
      <point x="-136" y="1097"/>
      <point x="-84" y="1052"/>
      <point x="1" y="1052" type="curve" smooth="yes"/>
      <point x="86" y="1052"/>
      <point x="137" y="1101"/>
    </contour>
    <contour>
      <point x="0" y="985" type="move" name="_top_case"/>
    </contour>
    <contour>
      <point x="1" y="1289" type="move" name="top_case"/>
    </contour>
  </outline>
</glyph>
<glyph name="tildecomb.case" format="1">
  <advance width="0"/>
  <outline>
    <contour>
      <point x="319" y="1271" type="line"/>
      <point x="265" y="1156"/>
      <point x="214" y="1110"/>
      <point x="139" y="1110" type="curve" smooth="yes"/>
      <point x="43" y="1110"/>
      <point x="-44" y="1201"/>
      <point x="-121" y="1201" type="curve" smooth="yes"/>
      <point x="-163" y="1201"/>
      <point x="-192" y="1176"/>
      <point x="-237" y="1112" type="curve"/>
      <point x="-318" y="1158" type="line"/>
      <point x="-248" y="1278"/>
      <point x="-200" y="1317"/>
      <point x="-132" y="1317" type="curve" smooth="yes"/>
      <point x="-29" y="1317"/>
      <point x="45" y="1226"/>
      <point x="128" y="1226" type="curve" smooth="yes"/>
      <point x="169" y="1226"/>
      <point x="194" y="1251"/>
      <point x="239" y="1315" type="curve"/>
    </contour>
    <contour>
      <point x="0" y="985" type="move" name="_top_case"/>
    </contour>
    <contour>
      <point x="0" y="1284" type="move" name="top_case"/>
    </contour>
  </outline>
</glyph>
